<svg xmlns="http://www.w3.org/2000/svg" viewBox="0 0 512 512">
  <defs>
    <linearGradient id="bg" x1="0%" y1="0%" x2="100%" y2="100%">
      <stop offset="0%" stop-color="#ff8a5b"/>
      <stop offset="100%" stop-color="#ff5a1f"/>
    </linearGradient>
  </defs>
  <rect width="512" height="512" rx="112" fill="url(#bg)"/>
  <!-- bowl -->
  <path d="M 120 260 Q 256 220 392 260 L 380 340 Q 380 400 256 410 Q 132 400 132 340 Z" fill="#fff" opacity="0.95"/>
  <!-- rice -->
  <ellipse cx="256" cy="260" rx="136" ry="22" fill="#fff"/>
  <ellipse cx="256" cy="252" rx="120" ry="14" fill="#fef3e6"/>
  <!-- steam -->
  <path d="M 200 200 Q 190 170 210 150 Q 230 130 215 100" stroke="#fff" stroke-width="8" fill="none" stroke-linecap="round" opacity="0.85"/>
  <path d="M 256 195 Q 246 165 266 145 Q 286 125 271 95" stroke="#fff" stroke-width="8" fill="none" stroke-linecap="round" opacity="0.85"/>
  <path d="M 312 200 Q 302 170 322 150 Q 342 130 327 100" stroke="#fff" stroke-width="8" fill="none" stroke-linecap="round" opacity="0.85"/>
</svg>
